<?xml version="1.0" encoding="UTF-8" standalone="no"?>
<!DOCTYPE svg PUBLIC "-//W3C//DTD SVG 1.1//EN" "http://www.w3.org/Graphics/SVG/1.1/DTD/svg11.dtd">
<svg width="100%" height="100%" viewBox="0 0 1080 1080" version="1.1" xmlns="http://www.w3.org/2000/svg" xmlns:xlink="http://www.w3.org/1999/xlink" xml:space="preserve" xmlns:serif="http://www.serif.com/" style="fill-rule:evenodd;clip-rule:evenodd;stroke-linejoin:round;stroke-miterlimit:2;">
    <g transform="matrix(10.8,0,0,10.8,540,540)">
        <g transform="matrix(1,0,0,1,-50,-50)">
            <g transform="matrix(0.104167,0,0,0.104167,0,100)">
                <path d="M441,-120L441,-206C405.667,-214 375.167,-229.333 349.5,-252C323.833,-274.667 305,-306.667 293,-348L367,-378C377,-346 391.833,-321.667 411.5,-305C431.167,-288.333 457,-280 489,-280C516.333,-280 539.5,-286.167 558.5,-298.5C577.5,-310.833 587,-330 587,-356C587,-379.333 579.667,-397.833 565,-411.5C550.333,-425.167 516.333,-440.667 463,-458C405.667,-476 366.333,-497.5 345,-522.5C323.667,-547.5 313,-578 313,-614C313,-657.333 327,-691 355,-715C383,-739 411.667,-752.667 441,-756L441,-840L521,-840L521,-756C554.333,-750.667 581.833,-738.5 603.5,-719.5C625.167,-700.5 641,-677.333 651,-650L577,-618C569,-639.333 557.667,-655.333 543,-666C528.333,-676.667 508.333,-682 483,-682C453.667,-682 431.333,-675.5 416,-662.5C400.667,-649.5 393,-633.333 393,-614C393,-592 403,-574.667 423,-562C443,-549.333 477.667,-536 527,-522C573,-508.667 607.833,-487.5 631.5,-458.5C655.167,-429.5 667,-396 667,-358C667,-310.667 653,-274.667 625,-250C597,-225.333 562.333,-210 521,-204L521,-120L441,-120Z" style="fill:rgb(84,194,133);fill-rule:nonzero;"/>
            </g>
        </g>
    </g>
</svg>
